<?xml version="1.0" encoding="UTF-8" standalone="no"?> <!-- Created with Vectornator for iOS (http://vectornator.io/) --><!DOCTYPE svg PUBLIC "-//W3C//DTD SVG 1.1//EN" "http://www.w3.org/Graphics/SVG/1.1/DTD/svg11.dtd">
<svg height="100%" style="fill-rule:nonzero;clip-rule:evenodd;stroke-linecap:round;stroke-linejoin:round;" xmlns:xlink="http://www.w3.org/1999/xlink" xmlns="http://www.w3.org/2000/svg" xml:space="preserve" width="100%" xmlns:vectornator="http://vectornator.io" version="1.1" viewBox="0 0 512 512">
<metadata>
<vectornator:setting key="DimensionsVisible" value="1"/>
<vectornator:setting key="PencilOnly" value="0"/>
<vectornator:setting key="SnapToPoints" value="0"/>
<vectornator:setting key="GuidesVisible" value="1"/>
<vectornator:setting key="CMYKEnabledKey" value="0"/>
<vectornator:setting key="RulersVisible" value="1"/>
<vectornator:setting key="SnapToEdges" value="0"/>
<vectornator:setting key="OutlineMode" value="0"/>
<vectornator:setting key="DisplayWhiteBackground" value="0"/>
<vectornator:setting key="doHistoryDisabled" value="0"/>
<vectornator:setting key="TimeLapseWatermarkDisabled" value="0"/>
<vectornator:setting key="SnapToGuides" value="1"/>
<vectornator:setting key="Units" value="Pixels"/>
<vectornator:setting key="IsolateActiveLayer" value="0"/>
<vectornator:setting key="SnapToGrid" value="0"/>
<vectornator:setting key="DynamicGuides" value="0"/>
</metadata>
<defs/>
<g id="Calque 2" vectornator:layerName="Calque 2">
<path stroke="#000000" stroke-width="3" d="M290.131+268.63L78.8745+320.8L463.339+296.429C463.339+296.429+137.294+166.837+107.528+150.476C77.7619+134.115+290.131+268.63+290.131+268.63Z" fill="#ffe300" stroke-linecap="butt" opacity="1" stroke-linejoin="round"/>
<path stroke="#000000" stroke-width="3" d="M103.957+150.934C213.134+209.324+341.004+275.046+341.004+275.046L89.2063+318.72" fill="none" stroke-linecap="butt" opacity="1" stroke-linejoin="round"/>
<path stroke="#000000" stroke-width="3" d="M288.519+268.074L339.4+274.668L461.489+296.244" fill="none" stroke-linecap="butt" opacity="1" stroke-linejoin="round"/>
<g opacity="1">
<path d="M341.933+276.189L97.3858+318.604L450.516+295.782L341.933+276.189Z" opacity="1" fill="#8e7d1e"/>
<path d="M337.562+271.844C335.701+272.187+336.463+272.326+335.688+272.188C335.066+272.077+334.464+272.417+333.844+272.531C333.236+272.643+332.639+272.763+332.031+272.875C329.652+273.313+327.254+273.749+324.875+274.188C315.787+275.862+306.713+277.513+297.625+279.188C259.323+286.244+221.003+293.313+182.719+300.469C160.602+304.603+138.49+308.763+116.375+312.906C114.76+313.209+113.146+313.51+111.531+313.812C109.917+314.115+108.302+314.414+106.688+314.719C105.611+314.922+104.545+315.109+103.469+315.312C102.931+315.414+102.382+315.523+101.844+315.625C101.306+315.727+100.788+315.836+100.25+315.938C99.712+316.039+99.163+316.148+98.625+316.25C98.2023+316.33+96.9526+316.445+96.7188+316.719C96.3306+317.174+95.6466+317.591+95.6875+318.188C95.7481+319.07+96.471+319.791+97+320.5C97.1096+320.647+97.3517+320.619+97.5312+320.656C97.9672+320.745+98.463+320.624+98.9062+320.594C99.3711+320.562+99.8476+320.532+100.312+320.5C103.489+320.282+106.667+320.061+109.844+319.844C122.231+318.995+134.612+318.154+147+317.312C199.459+313.751+251.912+310.253+304.375+306.75C343.782+304.119+383.186+301.493+422.594+298.875C431.427+298.288+440.26+297.712+449.094+297.125C450.7+297.018+452.331+296.919+453.938+296.812C454.339+296.786+454.723+296.745+455.125+296.719C455.337+296.705+456.259+296.717+456.375+296.625C456.504+296.523+456.748+296.476+456.75+296.312C456.753+296.073+456.498+295.893+456.375+295.688C456.374+295.685+455.137+295.482+455.062+295.469C453.532+295.196+451.999+294.929+450.469+294.656C443.295+293.379+436.111+292.09+428.938+290.812C406.503+286.817+384.091+282.839+361.656+278.844C356.226+277.877+350.774+276.905+345.344+275.938C343.778+275.659+342.222+275.373+340.656+275.094C340.718+274.762+340.939+274.477+340.875+274.125C340.593+272.583+339.105+271.562+337.562+271.844ZM340.656+275.125C340.834+275.158+341.009+275.186+341.188+275.219C342.918+275.541+344.644+275.865+346.375+276.188C353.759+277.562+361.147+278.938+368.531+280.312C388.626+284.054+408.718+287.79+428.812+291.531C435.03+292.689+441.251+293.842+447.469+295C449.111+295.306+450.764+295.632+452.406+295.938C450.08+296.074+447.764+296.207+445.438+296.344C438.608+296.744+431.767+297.131+424.938+297.531C403.829+298.768+382.734+300.02+361.625+301.25C298.994+304.898+236.352+308.537+173.719+312.156C159.927+312.953+146.136+313.713+132.344+314.5C141.197+312.904+150.047+311.313+158.906+309.75C198.658+302.739+238.401+295.545+278.125+288.375C292.898+285.708+307.666+283.019+322.438+280.344C325.972+279.703+329.496+279.078+333.031+278.438C333.639+278.327+334.267+278.204+334.875+278.094C335.496+277.981+334.868+278.112+338.594+277.438C339.773+277.222+340.436+276.234+340.656+275.125Z" opacity="1" fill="none"/>
</g>
<g opacity="1">
<path d="M143.468+173.492L334.295+273.04L289.095+267.004L143.468+173.492Z" opacity="1" fill="#8e7d1e"/>
<path/>
</g>
</g>
<g id="Calque 1" vectornator:layerName="Calque 1">
<g opacity="1">
<path stroke="#000000" stroke-width="6.23799" d="M315.493+309.037C314.356+312.152+312.398+314.477+309.619+316.011C303.64+323.115+295.368+329.873+284.803+336.285C273.413+342.975+264.799+345.685+258.962+344.415C258.087+344.224+257.284+344.05+256.555+343.891C250.547+340.596+243.833+336.689+236.411+332.17C223.254+323.804+214.502+311.354+210.154+294.819C206.333+280.079+206.359+263.809+210.234+246.007C214.935+224.411+223.692+206.297+236.506+191.663C250.094+176.281+264.336+169.83+279.232+172.308C284.986+173.255+292.768+177.7+302.578+185.643C312.388+193.586+318.448+200.674+320.759+206.908C323.07+213.142+322.881+225.595+320.192+244.267C319.627+248.27+318.185+252.082+315.869+255.705C313.038+260.285+310.284+262.054+307.607+261.013C302.627+259.317+296.524+256.461+289.298+252.443C280.563+247.637+276.021+244.28+275.673+242.37C275.54+241.577+275.521+240.962+275.616+240.524C275.871+239.357+276.816+237.996+278.454+236.442C280.091+234.888+281.037+233.527+281.291+232.36C283.195+227.12+284.656+222.165+285.672+217.496C287.165+210.638+287.322+205.705+286.143+202.697C276.117+206.628+267.382+214.814+259.936+227.253C253.633+237.955+248.909+250.528+245.765+264.974C243.351+276.064+242.286+286.224+242.569+295.456C242.852+304.687+244.335+310.512+247.018+312.93C248.286+314.123+252.907+312.378+260.881+307.695C268.854+303.011+274.186+299.052+276.877+295.817C277.054+295.703+278.172+293.73+280.228+289.899C281.612+287.754+283.097+286.549+284.683+286.283C287.323+286.094+293.294+289.38+302.596+296.143C311.898+302.906+316.197+307.204+315.493+309.037Z" fill="#d64b00" stroke-linecap="butt" opacity="1" stroke-linejoin="round"/>
</g>
<g opacity="1">
<path d="M290+207.139C289.439+203.567+289.183+201.943+289.183+201.943C289.183+201.943+295.718+212.097+295.994+214.584C296.856+222.338+294.299+230.272+291.2+237.245C290.197+239.503+289.383+249.873+285.795+246.88C284.603+245.887+278.483+242.48+278.641+241.093C279.239+239.344+280.151+239.11+280.986+238.2C281.673+237.451+282.194+236.79+282.636+236.095C284.598+233.008+285.364+230.246+285.938+228.367C288.833+218.893+289.123+217.925+290+207.139Z" opacity="1" fill="#b44103"/>
<path d="M289.125+197.906C287.791+197.738+286.468+198.36+285.75+199.656C285.459+200.181+285.323+200.816+285.25+201.406C285.228+201.587+285.28+201.402+285.219+202.438C285.188+203.98+286.406+205.243+287.938+205.312C287.925+205.539+287.918+205.774+287.906+206C287.776+208.511+287.559+211.001+287.281+213.5C286.811+217.727+286.159+221.949+285.062+226.062C284.576+227.89+284.022+229.769+283.25+231.5C282.917+232.247+282.413+232.861+281.875+233.469C279.601+236.037+275.426+239.25+278+243.031C278.58+243.883+279.265+244.656+279.969+245.406C280.678+246.163+281.425+246.869+282.25+247.5C282.639+247.798+283.071+248.103+283.531+248.281C287.164+249.689+289.757+244.812+291+242.219C291.627+240.911+292.142+239.566+292.75+238.25C293.911+235.738+295.113+233.26+296.062+230.656C297.939+225.51+299.049+219.801+298.562+214.312C298.408+212.574+297.697+210.847+297.062+209.25C296.186+207.045+295.193+204.883+294.031+202.812C293.15+201.242+292.073+199.249+290.438+198.344C290.011+198.108+289.57+197.962+289.125+197.906ZM290.781+202.281C290.77+202.301+290.762+202.324+290.75+202.344C290.713+202.327+290.775+202.292+290.781+202.281ZM288.875+205C289.592+206.153+290.239+207.348+290.844+208.562C291.55+209.981+292.219+211.424+292.781+212.906C293.003+213.492+293.326+214.206+293.406+214.844C294.344+222.341+292.194+229.595+289.5+236.531C288.582+238.896+287.944+241.34+286.688+243.562C286.297+244.254+285.801+245.042+285.125+245.5C284.393+245.997+283.673+245.224+283+244.688C281.948+243.849+280.995+242.9+280.125+241.875C279.638+241.302+279.343+240.916+279.469+240.156C279.721+238.64+280.989+237.309+281.938+236.188C282.806+235.161+283.735+234.163+284.375+232.969C284.716+232.332+284.907+231.691+285.125+231C287.156+224.567+287.769+217.678+288+210.969C288.065+209.083+288.107+207.199+288.094+205.312C288.397+205.307+288.602+205.093+288.875+205Z" opacity="1" fill="none"/>
</g>
<g opacity="1">
<path d="M287.875+290.434C289.488+291.328+291.027+291.744+291.368+293.016C292.213+296.169+289.105+300.761+286.44+303.012C278.259+309.919+268.323+314.715+258.418+318.548C255.664+319.614+252.411+317.327+248.368+316.571C246.918+316.299+252.274+315.282+256.907+313.43C261.368+311.053+264.433+309.279+265.649+308.505C270.31+305.533+275.638+301.672+279.234+297.438C281.149+295.183+281.722+291.532+284.272+289.814C285.826+288.767+286.02+289.406+287.875+290.434Z" opacity="1" fill="#b44103"/>
<path d="M287.25+287.969C286.548+288.154+285.895+288.635+285.5+289.312C285.343+289.582+285.436+289.867+285.375+290.156C285.192+290.27+284.981+290.335+284.844+290.438C284.437+290.741+284.003+291.036+283.625+291.375C282.124+292.721+281.109+294.499+279.906+296.094C278.757+297.617+277.394+298.957+275.969+300.219C273.383+302.508+270.532+304.516+267.625+306.375C266.724+306.951+265.828+307.574+264.875+308.062C261.446+309.819+257.804+311.123+254.312+312.75C253.555+313.103+252.81+313.47+252.062+313.844C251.557+314.097+251.007+314.383+250.5+314.656C250.024+314.913+249.526+315.159+249.062+315.438C247.524+316.36+244.604+318.21+246.156+320.344C247.471+322.151+249.814+322.573+251.906+322.344C254.415+322.068+256.712+321.026+259.062+320.188C267.653+317.122+276.163+313.596+283.719+308.406C286.679+306.373+289.678+304.192+291.688+301.156C293.355+298.638+294.358+295.44+293.219+292.5C292.693+291.143+291.769+289.98+290.625+289.094C290.492+288.991+290.357+288.877+290.219+288.781C290.077+288.682+290.235+288.803+289.406+288.281C288.729+287.887+287.952+287.784+287.25+287.969ZM285.375+290.344C285.219+291.451+285.505+292.59+286.531+293.188C286.815+293.347+286.886+292.866+286.812+293.344C286.79+293.493+287.066+293.504+287.188+293.594C287.468+293.8+287.73+294.039+287.906+294.344C288.434+295.26+288.012+296.447+287.594+297.312C286.167+300.265+283.262+302.285+280.719+304.188C275.446+308.132+269.739+311.338+263.812+314.188C261.703+315.202+259.548+316.149+257.406+317.094C255.757+317.821+254.154+318.619+252.406+319.094C251.351+319.38+250.041+319.652+249+319.156C248.909+319.113+248.836+319.047+248.75+318.969C249.298+318.3+250.161+317.738+250.812+317.312C252.602+316.145+254.515+315.114+256.406+314.125C258.513+313.023+260.626+312.005+262.75+310.938C263.79+310.414+264.882+309.895+265.875+309.281C268.861+307.435+271.702+305.18+274.344+302.875C276.366+301.11+278.346+299.203+279.938+297.031C281.257+295.232+282.213+293.149+283.812+291.562C284.168+291.21+284.552+290.913+284.938+290.594C285.045+290.504+285.232+290.448+285.375+290.344Z" opacity="1" fill="none"/>
</g>
<g opacity="1">
<path d="M259.918+177.546C252.002+183.741+240.184+203.247+236.03+212.458C231.635+222.203+227.352+231.92+224.579+244.297C221.018+260.19+221.49+260.181+220.82+271.063C220.475+276.671+219.391+288.596+220.725+295.648C222.379+304.388+223.47+306.491+227.681+314.134C228.443+315.516+240.6+329.753+240.051+330.675C239.839+331.03+233.535+326.122+231.463+324.732C227.518+322.087+223.567+316.109+221.142+312.918C212.208+301.158+213.285+297.188+210.946+282.753C206.994+258.373+214.602+230.107+228.362+208.052C232.171+201.946+236.152+196.224+240.819+191.378C244.991+187.047+251.935+181.342+254.208+180.29" opacity="1" fill="#b44103"/>
<path d="M257+177.906C256.278+177.829+255.517+178.039+254.906+178.531C254.845+178.648+254.641+178.862+254.5+179.062C254.455+179.006+254.426+178.919+254.375+178.938C254.145+179.021+253.996+179.275+253.812+179.438C253.247+179.938+252.715+180.461+252.188+181C251.443+181.76+250.782+182.595+250.094+183.406C249.214+184.192+248.326+184.97+247.469+185.781C241.501+191.429+236.07+197.628+231.25+204.281C218.045+222.509+208.865+244.608+208.906+267.375C208.917+273.174+209.659+278.869+210.719+284.562C211.598+289.285+212.705+293.991+214.188+298.562C215.853+303.698+217.962+308.679+220.688+313.344C222.114+315.785+223.754+318.085+225.406+320.375C226.79+322.293+228.11+324.243+229.625+326.062C231.164+327.911+233.072+330.072+235.406+330.906C236.381+331.255+237.746+331.195+238.281+330.125C239.128+328.431+236.944+326.305+236+325.188C235.634+324.754+235.249+324.332+234.875+323.906C233.348+322.169+231.794+320.471+230.25+318.75C229.736+318.177+228.864+317.368+228.562+316.781C226.745+313.24+225.166+309.625+224+305.812C222.372+300.489+221.331+294.865+221.469+289.281C221.548+286.069+222.055+282.873+222.438+279.688C222.719+277.341+222.908+274.985+223.031+272.625C223.48+264.018+223.297+255.349+225.125+246.875C227.08+237.813+231.166+229.261+235.062+220.906C238.867+212.751+242.597+204.592+247.312+196.906C249.303+193.663+251.442+190.493+253.875+187.562C254.755+186.502+255.695+185.457+256.688+184.5C256.966+184.232+257.271+183.942+257.562+183.688C257.706+183.562+258.088+183.482+258+183.312C257.606+182.559+258.005+183.308+258.469+182.938C259.689+181.954+259.89+180.158+258.906+178.938C258.414+178.327+257.722+177.984+257+177.906ZM254.25+179.781C254.25+179.781+257.102+181.817+256.375+181.375C255.513+180.851+254.447+180.58+253.438+180.531C253.556+180.427+254.25+179.781+254.25+179.781ZM249.406+184.188C248.011+185.901+246.7+187.671+245.469+189.5C240.32+197.145+236.258+205.403+232.469+213.781C230.603+217.905+228.69+221.995+226.906+226.156C223.993+232.952+221.25+239.989+220.031+247.312C218.503+256.492+218.953+265.864+218.469+275.125C218.223+279.834+217.399+284.527+217.406+289.25C217.416+295.99+218.985+302.751+221.344+309.062C217.445+301.828+214.846+293.965+213.094+285.938C212.253+282.086+211.489+278.204+211.062+274.281C208.075+246.829+219.822+219.131+236.656+197.969C240.037+193.719+243.682+189.674+247.562+185.875C248.201+185.25+248.588+184.938+249.406+184.188Z" opacity="1" fill="none"/>
</g>
</g>
</svg>
