<?xml version="1.0" encoding="UTF-8" standalone="no"?> <!-- Created with Vectornator for iOS (http://vectornator.io/) --><!DOCTYPE svg PUBLIC "-//W3C//DTD SVG 1.1//EN" "http://www.w3.org/Graphics/SVG/1.1/DTD/svg11.dtd">
<svg height="100%" style="fill-rule:nonzero;clip-rule:evenodd;stroke-linecap:round;stroke-linejoin:round;" xmlns:xlink="http://www.w3.org/1999/xlink" xmlns="http://www.w3.org/2000/svg" xml:space="preserve" width="100%" xmlns:vectornator="http://vectornator.io" version="1.1" viewBox="0 0 1024 1024">
<metadata>
<vectornator:setting key="DimensionsVisible" value="1"/>
<vectornator:setting key="PencilOnly" value="0"/>
<vectornator:setting key="SnapToPoints" value="0"/>
<vectornator:setting key="GuidesVisible" value="1"/>
<vectornator:setting key="CMYKEnabledKey" value="0"/>
<vectornator:setting key="RulersVisible" value="1"/>
<vectornator:setting key="SnapToEdges" value="0"/>
<vectornator:setting key="OutlineMode" value="0"/>
<vectornator:setting key="DisplayWhiteBackground" value="0"/>
<vectornator:setting key="doHistoryDisabled" value="0"/>
<vectornator:setting key="TimeLapseWatermarkDisabled" value="0"/>
<vectornator:setting key="SnapToGuides" value="1"/>
<vectornator:setting key="Units" value="Pixels"/>
<vectornator:setting key="IsolateActiveLayer" value="0"/>
<vectornator:setting key="SnapToGrid" value="0"/>
<vectornator:setting key="DynamicGuides" value="0"/>
</metadata>
<defs/>
<g id="Calque 1 Copy Copy Copy Copy Copy" vectornator:layerName="Calque 1 Copy Copy Copy Copy Copy">
<g opacity="1">
<path stroke="#000000" stroke-width="3" d="M550.737+556.231L120.587+662.456L903.413+612.834C903.413+612.834+239.537+348.964+178.929+315.651C118.321+282.337+550.737+556.231+550.737+556.231Z" fill="#ffe300" stroke-linecap="butt" opacity="1" stroke-linejoin="round"/>
<path stroke="#000000" stroke-width="3" d="M171.658+316.584C393.96+435.475+654.322+569.295+654.322+569.295L141.624+658.221" fill="none" stroke-linecap="butt" opacity="1" stroke-linejoin="round"/>
<path stroke="#000000" stroke-width="3" d="M547.454+555.099L651.055+568.525L899.648+612.457" fill="none" stroke-linecap="butt" opacity="1" stroke-linejoin="round"/>
<g opacity="1">
<path d="M656.213+571.622L158.278+657.985L877.304+611.516L656.213+571.622Z" opacity="1" fill="#8e7d1e"/>
<path d="" opacity="1" fill="none"/>
</g>
<g opacity="1">
<path d="M252.109+362.516L640.66+565.209L548.628+552.919L252.109+362.516Z" opacity="1" fill="#8e7d1e"/>
<path/>
</g>
<path stroke="#000000" stroke-width="6.23799" d="M602.377+638.505C600.063+644.848+596.076+649.581+590.417+652.706C578.244+667.171+561.401+680.931+539.888+693.986C516.696+707.609+499.157+713.127+487.273+710.54C485.49+710.152+483.856+709.796+482.371+709.473C470.139+702.765+456.467+694.81+441.354+685.608C414.566+668.574+396.745+643.223+387.892+609.555C380.111+579.543+380.165+546.414+388.055+510.167C397.626+466.195+415.457+429.311+441.548+399.515C469.215+368.195+498.214+355.058+528.545+360.105C540.262+362.033+556.107+371.083+576.081+387.256C596.055+403.429+608.395+417.862+613.1+430.556C617.806+443.25+617.421+468.605+611.946+506.623C610.794+514.774+607.86+522.537+603.142+529.913C597.378+539.238+591.771+542.841+586.32+540.721C576.18+537.269+563.754+531.452+549.042+523.271C531.255+513.487+522.008+506.65+521.298+502.762C521.027+501.147+520.989+499.894+521.183+499.002C521.7+496.626+523.626+493.855+526.96+490.691C530.294+487.527+532.219+484.756+532.737+482.379C536.615+471.71+539.589+461.621+541.658+452.114C544.698+438.15+545.017+428.106+542.616+421.982C522.203+429.986+504.416+446.652+489.256+471.981C476.422+493.771+466.803+519.373+460.401+548.787C455.486+571.367+453.316+592.055+453.893+610.852C454.469+629.649+457.489+641.509+462.952+646.432C465.535+648.861+474.944+645.308+491.178+635.772C507.413+626.236+518.27+618.175+523.749+611.588C524.111+611.355+526.386+607.338+530.573+599.537C533.391+595.171+536.414+592.717+539.644+592.176C545.018+591.789+557.176+598.481+576.117+612.251C595.059+626.021+603.812+634.772+602.377+638.505Z" fill="#d64b00" stroke-linecap="butt" opacity="1" stroke-linejoin="round"/>
<g opacity="1">
<path d="M550.469+431.026C549.328+423.753+548.806+420.446+548.806+420.446C548.806+420.446+562.112+441.121+562.675+446.185C564.429+461.973+559.224+478.128+552.914+492.326C550.871+496.925+549.214+518.039+541.907+511.945C539.481+509.922+527.019+502.985+527.341+500.16C528.559+496.6+530.416+496.123+532.115+494.27C533.515+492.745+534.577+491.399+535.477+489.984C539.471+483.699+541.03+478.076+542.199+474.249C548.094+454.958+548.685+452.988+550.469+431.026Z" opacity="1" fill="#b44103"/>
<path d="" opacity="1" fill="none"/>
</g>
<g opacity="1">
<path d="M546.144+600.628C549.427+602.448+552.561+603.294+553.255+605.883C554.976+612.303+548.648+621.655+543.221+626.237C526.563+640.301+506.332+650.066+486.164+657.871C480.557+660.041+473.932+655.386+465.701+653.845C462.749+653.293+473.654+651.221+483.087+647.451C492.17+642.61+498.411+638.999+500.887+637.421C510.379+631.371+521.227+623.509+528.549+614.888C532.448+610.297+533.615+602.862+538.806+599.365C541.972+597.233+542.367+598.533+546.144+600.628Z" opacity="1" fill="#b44103"/>
<path d="" opacity="1" fill="none"/>
</g>
<g opacity="1">
<path d="M489.219+370.771C473.101+383.383+449.038+423.101+440.579+441.856C431.63+461.699+422.909+481.484+417.263+506.685C410.012+539.045+410.974+539.027+409.609+561.184C408.906+572.604+406.699+596.885+409.415+611.243C412.782+629.04+415.004+633.321+423.579+648.884C425.13+651.698+449.884+680.687+448.766+682.564C448.335+683.287+435.499+673.293+431.279+670.463C423.248+665.077+415.202+652.905+410.266+646.408C392.073+622.462+394.268+614.38+389.503+584.987C381.456+535.345+396.948+477.791+424.965+432.886C432.722+420.453+440.827+408.802+450.331+398.934C458.825+390.115+472.964+378.498+477.591+376.357" opacity="1" fill="#b44103"/>
<path d="" opacity="1" fill="none"/>
</g>
</g>
</g>
</svg>
