<?xml version="1.0" encoding="UTF-8" standalone="no"?>
<!DOCTYPE svg PUBLIC "-//W3C//DTD SVG 1.1//EN" "http://www.w3.org/Graphics/SVG/1.1/DTD/svg11.dtd">
<!-- Created with Vectornator (http://vectornator.io/) -->
<svg height="100%" stroke-miterlimit="10" style="fill-rule:nonzero;clip-rule:evenodd;stroke-linecap:round;stroke-linejoin:round;" version="1.1" viewBox="0 0 1024 1024" width="100%" xml:space="preserve" xmlns="http://www.w3.org/2000/svg" xmlns:vectornator="http://vectornator.io" xmlns:xlink="http://www.w3.org/1999/xlink">
<defs>
<filter color-interpolation-filters="sRGB" filterUnits="userSpaceOnUse" height="782.179" id="Filter" width="621.879" x="213.509" y="196.379">
<feDropShadow dx="-10.2883" dy="32.8449" flood-color="#000000" flood-opacity="0.333" in="SourceGraphic" result="Shadow" stdDeviation="13.4302"/>
</filter>
<filter color-interpolation-filters="sRGB" filterUnits="userSpaceOnUse" height="819.645" id="Filter_2" width="627.042" x="172.136" y="105.148">
<feDropShadow dx="-25.3197" dy="20.3137" flood-color="#000000" flood-opacity="0.333" in="SourceGraphic" result="Shadow" stdDeviation="7.37403"/>
</filter>
</defs>
<g id="Calque-1" vectornator:layerName="Calque 1">
<g opacity="1">
<g opacity="0.265385">
<path d="M96.9171 75.8069L932 592L96.9171 949.19L452 512L96.9171 75.8069Z" fill="#fddf19" fill-rule="nonzero" stroke="none"/>
<path d="M97.1875 73.1562C96.9269 73.1295 96.6967 73.3241 96.4375 73.375C96.3702 73.3883 96.316 73.4188 96.25 73.4375C95.9067 73.5324 95.5439 73.5107 95.25 73.75C95.0304 73.9288 95.0216 74.2123 94.875 74.4375C94.8523 74.4706 94.8026 74.4655 94.7812 74.5C94.7507 74.5495 94.7768 74.6056 94.75 74.6562C94.4761 75.1834 94.3922 75.6696 94.5 76.25C94.5171 76.3441 94.5348 76.4084 94.5625 76.5C94.6588 76.8311 94.6123 77.1845 94.8438 77.4688C95.624 78.4272 95.659 77.4359 95.625 78.4375C95.611 78.8492 96.1462 79.0868 96.4062 79.4062C96.6663 79.7257 96.9274 80.0243 97.1875 80.3438C97.9677 81.3022 98.751 82.2603 99.5312 83.2188C103.432 88.0108 107.349 92.8329 111.25 97.625C128.328 118.604 145.39 139.553 162.469 160.531C232.023 245.97 301.602 331.436 371.156 416.875C389.166 438.997 407.147 461.096 425.156 483.219C431.362 490.842 437.576 498.471 443.781 506.094C445.237 507.882 446.701 509.681 448.156 511.469C448.301 511.646 448.449 511.823 448.594 512C445.493 515.868 442.344 519.683 439.219 523.531C432.464 531.848 425.723 540.183 418.969 548.5C398.669 573.494 378.362 598.474 358.062 623.469C297.189 698.421 236.308 773.389 175.438 848.344C154.394 874.256 133.356 900.15 112.312 926.062C107.422 932.084 102.546 938.135 97.6562 944.156C97.4262 944.44 97.1988 944.717 96.9688 945C96.7387 945.283 96.5113 945.56 96.2812 945.844C95.8378 946.39 95.0183 947.203 94.75 947.875C94.5898 948.276 94.4613 948.753 94.5312 949.188C94.5965 949.593 94.6879 949.996 94.9062 950.344C95.1353 950.708 95.4891 951.006 95.8438 951.25C97.2834 952.241 99.3692 950.997 100.75 950.406C101.217 950.206 101.689 950.012 102.156 949.812C102.623 949.613 103.095 949.387 103.562 949.188C104.497 948.788 105.409 948.4 106.344 948C115.688 944.003 125.031 939.998 134.375 936C174.087 919.01 213.819 902.021 253.531 885.031C420.744 813.493 587.944 741.944 755.156 670.406C800.262 651.109 845.363 631.829 890.469 612.531C901.407 607.851 912.342 603.18 923.281 598.5C924.352 598.042 925.43 597.583 926.5 597.125C927.041 596.894 927.584 596.638 928.125 596.406C928.666 596.175 929.209 595.95 929.75 595.719C931.395 595.015 933.883 594.38 934.125 592.281C934.392 589.96 931.695 588.821 930.062 587.812C929.519 587.476 928.981 587.149 928.438 586.812C927.894 586.476 927.356 586.149 926.812 585.812C920.288 581.78 913.774 577.751 907.25 573.719C878.978 556.246 850.709 538.755 822.438 521.281C704.457 448.361 586.449 375.453 468.469 302.531C376.042 245.404 283.644 188.255 191.219 131.125C167.841 116.675 144.441 102.232 121.062 87.7812C115.626 84.4207 110.187 81.0481 104.75 77.6875C103.663 77.0154 102.587 76.3596 101.5 75.6875C101.078 75.4267 100.368 74.9902 98.9688 74.125C98.5651 73.8755 98.9802 74.1076 98.25 73.6562C98.1918 73.6203 98.1224 73.6557 98.0625 73.625C97.7631 73.4694 97.5184 73.1902 97.1875 73.1562ZM108.656 86.0312C117.346 91.4028 126.06 96.7847 134.75 102.156C174.438 126.689 214.125 151.217 253.812 175.75C419.632 278.251 585.433 380.745 751.25 483.25C795.83 510.809 840.421 538.377 885 565.938C895.329 572.324 905.671 578.708 916 585.094C919.262 587.11 922.519 589.108 925.781 591.125C926.032 591.28 926.28 591.439 926.531 591.594C926.398 591.651 926.258 591.693 926.125 591.75C923.978 592.668 921.835 593.582 919.688 594.5C912.861 597.419 906.045 600.331 899.219 603.25C878.683 612.032 858.13 620.812 837.594 629.594C775.553 656.125 713.51 682.657 651.469 709.188C527.776 762.082 404.099 814.98 280.406 867.875C239.459 885.385 198.509 902.896 157.562 920.406C144.013 926.201 130.456 931.987 116.906 937.781C113.14 939.392 109.391 941.014 105.625 942.625C106.801 941.177 107.98 939.729 109.156 938.281C117.403 928.129 125.628 917.965 133.875 907.812C158.23 877.829 182.613 847.858 206.969 817.875C268.276 742.4 329.571 666.915 390.875 591.438C406.769 571.87 422.669 552.318 438.562 532.75C442.536 527.858 446.495 522.954 450.469 518.062C451.319 517.015 452.181 515.985 453.031 514.938C453.175 514.761 454.286 513.494 454.281 513.312C454.256 512.317 454.114 511.305 454.031 510.312C454.021 510.195 453.636 509.834 453.594 509.781C453.285 509.402 452.965 509.004 452.656 508.625C452.36 508.262 452.077 507.895 451.781 507.531C451.417 507.083 451.052 506.635 450.688 506.188C449.754 505.04 448.809 503.897 447.875 502.75C443.786 497.727 439.714 492.711 435.625 487.688C417.816 465.809 399.997 443.941 382.188 422.062C314.135 338.462 246.084 254.851 178.031 171.25C157.92 146.543 137.799 121.832 117.688 97.125C114.676 93.4254 111.668 89.7308 108.656 86.0312Z" fill="#303030" stroke="none"/>
</g>
<g opacity="1">
<path d="M932 592L452 512" fill="#fddf19" fill-rule="nonzero" stroke="none"/>
<path d="M452.438 509.375C450.991 509.134 449.616 510.116 449.375 511.562C449.134 513.009 450.116 514.384 451.562 514.625C611.566 541.272 771.592 567.812 931.594 594.469C932.963 594.697 934.24 593.776 934.469 592.406C934.697 591.037 933.776 589.759 932.406 589.531C772.408 562.855 612.434 536.061 452.438 509.375Z" fill="#303030" stroke="none"/>
</g>
<path d="M452 512.5L92 952L598.65 537.514L452 512.5Z" fill="#fbe34c" fill-rule="nonzero" opacity="1" stroke="#303030" stroke-linecap="butt" stroke-linejoin="round" stroke-width="5"/>
<g opacity="1">
<path d="M284.903 546.477" fill="#fddf19" fill-rule="nonzero" stroke="none"/>
<path d="" fill="#303030" stroke="none"/>
</g>
<g opacity="1">
<path d="M92 72L598.65 537.514L452.751 512.915L92 72Z" fill="#d1b830" fill-rule="nonzero" stroke="none"/>
<path d="M92.25 69.3438C91.5739 69.2761 90.8799 69.4733 90.3125 69.9375C89.1777 70.866 89.009 72.5527 89.9375 73.6875C90.7302 74.6563 90.8272 73.6786 90.75 74.6562C90.7172 75.0722 91.267 75.3021 91.5312 75.625C91.7955 75.9479 92.0482 76.2708 92.3125 76.5938C93.6337 78.2084 94.9601 79.8229 96.2812 81.4375C102.359 88.8648 108.454 96.2915 114.531 103.719C139.619 134.379 164.694 165.028 189.781 195.688C255.074 275.483 320.356 355.273 385.656 435.062C401.757 454.736 417.867 474.421 433.969 494.094C438.204 499.268 442.452 504.451 446.688 509.625C447.571 510.704 448.46 511.764 449.344 512.844C449.724 513.308 450.089 513.786 450.469 514.25C450.536 514.332 450.625 514.507 450.719 514.562C451.245 514.875 451.736 515.296 452.312 515.5C452.94 515.722 453.625 515.702 454.281 515.812C455.587 516.032 456.881 516.249 458.188 516.469C462.106 517.129 466.019 517.809 469.938 518.469C502.891 524.019 535.859 529.544 568.812 535.094C576.766 536.433 584.734 537.785 592.688 539.125C593.416 539.248 594.115 539.377 594.844 539.5C596.318 539.748 598.943 540.545 600.156 539.281C600.718 538.697 600.92 538.173 600.969 537.375C601.061 535.844 599.417 534.709 598.406 533.781C598.076 533.478 597.767 533.178 597.438 532.875C597.108 532.572 596.767 532.272 596.438 531.969C596.108 531.666 595.767 531.366 595.438 531.062C594.778 530.456 594.129 529.856 593.469 529.25C592.479 528.341 591.49 527.44 590.5 526.531C577.964 515.017 565.443 503.483 552.906 491.969C498.802 442.275 444.694 392.604 390.594 342.906C315.381 273.814 240.145 204.723 164.938 135.625C147.125 119.26 129.312 102.865 111.5 86.5C107.212 82.5602 102.944 78.6273 98.6562 74.6875C97.6667 73.7783 96.677 72.8779 95.6875 71.9688C95.5118 71.8073 94.8751 71.2298 94.625 71C94.4223 70.7522 94.6282 71.004 94.0625 70.3125C93.5983 69.7451 92.9261 69.4114 92.25 69.3438ZM117.062 98.4375C118.04 99.3352 119.023 100.227 120 101.125C150.346 129.008 180.686 156.898 211.031 184.781C296.791 263.581 382.534 342.374 468.281 421.188C496.974 447.56 525.651 473.94 554.344 500.312C563.908 509.103 573.498 517.897 583.062 526.688C585.531 528.957 588 531.231 590.469 533.5C585.86 532.722 581.265 531.965 576.656 531.188C559.031 528.213 541.406 525.225 523.781 522.25C508.085 519.601 492.384 516.962 476.688 514.312C470.81 513.321 464.94 512.336 459.062 511.344C457.756 511.123 456.462 510.908 455.156 510.688C454.797 510.627 454.358 510.38 453.969 510.25C453.474 509.645 452.964 509.043 452.469 508.438C451.15 506.825 449.819 505.206 448.5 503.594C444.57 498.789 440.648 493.992 436.719 489.188C424.995 474.853 413.287 460.522 401.562 446.188C323.377 350.603 245.162 255.015 166.969 159.438C150.331 139.101 133.7 118.774 117.062 98.4375Z" fill="#303030" stroke="none"/>
</g>
<g opacity="1">
<path d="M102.622 83.129" fill="#fddf19" fill-rule="nonzero" stroke="none"/>
<path d="" fill="#303030" stroke="none"/>
</g>
<g opacity="1">
<path d="M92 72L932 592L598.65 537.514L92 72Z" fill="#fbe34c" fill-rule="nonzero" stroke="none"/>
<path d="M91.875 69.3438C91.7123 69.3506 91.5967 69.526 91.4375 69.5625C90.9324 69.6784 90.4084 69.8083 90.0312 70.2188C89.9103 70.3503 89.9644 70.5404 89.875 70.6875C89.5097 71.2884 89.4107 71.9009 89.5625 72.5625C89.6784 73.0676 89.8083 73.5916 90.2188 73.9688C91.332 74.9916 91.1462 73.9485 91.3125 74.9688C91.3936 75.4661 92.0664 75.6591 92.4375 76C93.1797 76.6819 93.9141 77.3494 94.6562 78.0312C96.8828 80.0769 99.1172 82.1419 101.344 84.1875C111.487 93.5066 121.638 102.806 131.781 112.125C175.529 152.318 219.252 192.526 263 232.719C340.379 303.811 417.772 374.912 495.156 446C518.67 467.601 542.174 489.212 565.688 510.812C572.958 517.492 580.229 524.165 587.5 530.844C589.661 532.829 591.839 534.796 594 536.781C594.69 537.415 595.373 538.054 596.062 538.688C596.298 538.904 596.585 539.292 596.875 539.438C597.322 539.662 597.743 539.937 598.219 540.094C599.059 540.371 599.971 540.389 600.844 540.531C602.146 540.744 603.448 540.944 604.75 541.156C609.525 541.936 614.288 542.72 619.062 543.5C634.254 545.982 649.433 548.456 664.625 550.938C714.975 559.163 765.337 567.401 815.688 575.625C846.072 580.587 876.46 585.538 906.844 590.5C909.014 590.854 911.173 591.208 913.344 591.562C915.08 591.846 916.826 592.154 918.562 592.438C919.865 592.65 921.167 592.85 922.469 593.062C923.337 593.204 924.194 593.358 925.062 593.5C925.931 593.642 926.819 593.764 927.688 593.906C928.122 593.977 928.535 594.054 928.969 594.125C930.14 594.316 932.177 594.868 933.125 594C933.499 593.658 933.88 593.254 934.062 592.781C934.238 592.326 934.201 591.799 934.156 591.312C934.107 590.781 933.717 590.238 933.344 589.875C932.878 589.422 932.269 589.122 931.719 588.781C931.172 588.443 930.641 588.12 930.094 587.781C929.547 587.443 928.984 587.088 928.438 586.75C924.609 584.381 920.766 582.026 916.938 579.656C899.983 569.164 883.048 558.649 866.094 548.156C796.635 505.17 727.177 462.205 657.719 419.219C587.713 375.894 517.721 332.548 447.719 289.219C358.575 234.041 269.423 178.869 180.281 123.688C158.406 110.146 136.531 96.6038 114.656 83.0625C109.734 80.0157 104.797 76.9843 99.875 73.9375C98.7812 73.2604 97.6875 72.5833 96.5938 71.9062C96.198 71.6613 95.3339 71.1278 94.2188 70.4375C93.957 70.197 94.2167 70.4314 93.7812 70.0312C93.6497 69.9103 93.4596 69.9644 93.3125 69.875C92.8562 69.5976 92.3884 69.322 91.875 69.3438ZM113.844 88.4688C123.076 94.1843 132.299 99.9094 141.531 105.625C192.937 137.449 244.344 169.27 295.75 201.094C436.842 288.44 577.917 375.795 719 463.156C766.028 492.277 813.066 521.411 860.094 550.531C875.952 560.351 891.829 570.149 907.688 579.969C911.662 582.43 915.619 584.914 919.594 587.375C916.056 586.796 912.506 586.204 908.969 585.625C891.173 582.714 873.39 579.786 855.594 576.875C798.3 567.503 741.012 558.153 683.719 548.781C664.621 545.657 645.504 542.53 626.406 539.406C620.33 538.412 614.264 537.4 608.188 536.406C606.017 536.051 603.858 535.699 601.688 535.344C601.253 535.273 600.809 535.196 600.375 535.125C600.178 535.093 599.884 534.973 599.625 534.875C599.323 534.597 599.021 534.309 598.719 534.031C597.687 533.083 596.657 532.136 595.625 531.188C592.11 527.957 588.609 524.699 585.094 521.469C574.624 511.848 564.157 502.246 553.688 492.625C522.829 464.267 491.953 435.889 461.094 407.531C367.607 321.624 274.115 235.748 180.625 149.844C158.732 129.727 136.831 109.586 114.938 89.4688C114.573 89.1342 114.208 88.8033 113.844 88.4688Z" fill="#303030" stroke="none"/>
</g>
<g opacity="1">
<path d="M107.152 86.5975" fill="#420b75" fill-rule="nonzero" stroke="none"/>
<path d="" fill="#303030" stroke="none"/>
</g>
<g opacity="1">
<path d="M598.65 537.514L932 592L92 952L598.65 537.514Z" fill="#d1b830" fill-rule="nonzero" stroke="none"/>
<path d="M598.906 534.875C598.23 534.807 597.536 535.005 596.969 535.469C595.856 536.38 596.532 535.947 595.844 536.375C595.437 536.628 595.121 536.978 594.75 537.281C594.008 537.888 593.273 538.487 592.531 539.094C591.047 540.308 589.547 541.536 588.062 542.75C583.61 546.393 579.172 550.044 574.719 553.688C560.371 565.426 546.004 577.167 531.656 588.906C486.241 626.062 440.821 663.188 395.406 700.344C317.194 764.333 238.99 828.35 160.781 892.344C142.415 907.372 124.054 922.378 105.688 937.406C102.172 940.283 98.6405 943.155 95.125 946.031C93.8632 947.064 92.6055 948.124 91.3438 949.156C91.0371 949.407 90.7442 949.655 90.4375 949.906C90.4084 949.93 90.3255 949.936 90.3438 949.969C91.1795 951.473 91.9645 952.99 92.8438 954.469C92.8516 954.482 93.2123 954.329 93.25 954.312C93.6892 954.125 94.1236 953.938 94.5625 953.75C95.6882 953.267 96.843 952.795 97.9688 952.312C99.0625 951.844 100.156 951.375 101.25 950.906C105.625 949.031 110 947.157 114.375 945.281C135.702 936.139 157.017 926.987 178.344 917.844C271.854 877.754 365.365 837.653 458.875 797.562C579.181 745.984 699.472 694.413 819.781 642.844C848.765 630.42 877.766 617.986 906.75 605.562C913.859 602.515 920.953 599.485 928.062 596.438C928.609 596.203 929.172 595.953 929.719 595.719C931.193 595.087 933.89 594.311 934.125 592.469C934.54 589.218 930.64 589.225 928.5 588.875C928.066 588.804 927.621 588.727 927.188 588.656C926.753 588.585 926.34 588.508 925.906 588.438C925.038 588.296 924.149 588.173 923.281 588.031C921.979 587.818 920.677 587.588 919.375 587.375C918.073 587.162 916.771 586.963 915.469 586.75C895.502 583.488 875.56 580.232 855.594 576.969C797.865 567.534 740.135 558.091 682.406 548.656C663.742 545.606 645.07 542.55 626.406 539.5C620.764 538.578 615.111 537.672 609.469 536.75C607.298 536.395 605.139 536.011 602.969 535.656C602.142 535.521 602.546 535.601 599.25 535.062C599.124 535.031 599.035 534.888 598.906 534.875ZM599.531 540.219C599.535 540.22 599.559 540.217 599.562 540.219C599.97 540.385 600.41 540.335 600.844 540.406C601.712 540.548 602.601 540.702 603.469 540.844C606.941 541.411 610.403 541.995 613.875 542.562C628.633 544.975 643.399 547.369 658.156 549.781C717.187 559.431 776.22 569.069 835.25 578.719C857.386 582.338 879.52 585.974 901.656 589.594C908.771 590.757 915.885 591.93 923 593.094C918.008 595.232 913.021 597.393 908.031 599.531C894.359 605.39 880.703 611.235 867.031 617.094C825.468 634.904 783.908 652.722 742.344 670.531C618.199 723.726 494.023 776.907 369.875 830.094C298.777 860.553 227.691 891.009 156.594 921.469C140.393 928.41 124.201 935.371 108 942.312C110.48 940.284 112.957 938.247 115.438 936.219C129.799 924.472 144.169 912.716 158.531 900.969C201.409 865.898 244.281 830.824 287.156 795.75C364.832 732.208 442.512 668.667 520.188 605.125C540.226 588.732 560.242 572.361 580.281 555.969C585.105 552.022 589.926 548.071 594.75 544.125C595.863 543.214 596.98 542.286 598.094 541.375C598.331 541.181 599.03 540.629 599.531 540.219Z" fill="#303030" stroke="none"/>
</g>
<g opacity="1">
<path d="M592.61 543.241" fill="#68c40c" fill-rule="nonzero" stroke="none"/>
<path d="" fill="#303030" stroke="none"/>
</g>
</g>
</g>
<g id="Calque-2" vectornator:layerName="Calque 2">
<path d="M623.977 196.381C572.602 195.801 422.138 350.518 394.334 456.585C362.493 578.053 332.014 769.56 375.504 767.075C366.673 709.235 389.913 577.535 413.976 485.738C441.307 381.476 587.076 230.346 640.829 225.777C640.874 225.201 640.949 224.676 640.992 224.097C642.416 204.915 635.833 196.514 623.977 196.381ZM791.035 202.477C820.593 278.332 759.498 436.401 759.498 436.401L627.851 382.376C622.163 393.476 617.935 399.391 617.935 399.391L779.141 465.526C779.141 465.526 850.367 281.397 801.953 215.211C798.713 210.781 795.058 206.54 791.035 202.477ZM744.515 645.371C717.25 696.29 628.118 850.554 533.404 877.616C441.87 903.768 313.858 889.566 250.658 815.111C302.513 914.782 450.628 936.003 553.047 906.741C666.591 874.3 773.451 656.913 773.451 656.913L744.515 645.371Z" fill="#303030" fill-rule="nonzero" filter="url(#Filter)" stroke="none" vectornator:shadowAngle="1.87435" vectornator:shadowColor="#000000" vectornator:shadowOffset="34.4186" vectornator:shadowOpacity="0.333" vectornator:shadowRadius="26.8605"/>
<path d="M759.501 436.392L598.281 370.259C598.281 370.259 633.652 323.041 640.998 224.1C648.594 121.794 428.558 326.054 394.338 456.598C361.434 582.122 329.982 782.443 380.112 766.184C522.097 720.135 588.4 561.866 588.4 561.866L753.798 627.772C753.798 627.772 646.943 845.175 533.399 877.616C419.855 910.058 250.122 880.476 217.681 750.711C202.228 688.901 220.092 518.863 263.442 380.191C268.889 362.766 274.739 345.836 280.976 329.678C329.304 204.471 427.422 126.626 500.957 110.73C583.33 92.9224 732.252 117.637 782.315 186.078C830.729 252.264 759.501 436.392 759.501 436.392Z" fill="#f06123" fill-rule="nonzero" filter="url(#Filter_2)" stroke="none" vectornator:shadowAngle="2.46546" vectornator:shadowColor="#000000" vectornator:shadowOffset="32.4612" vectornator:shadowOpacity="0.333" vectornator:shadowRadius="14.7481"/>
<path d="M553.209 105.212C534.175 105.553 516.391 107.4 500.946 110.739C427.411 126.635 328.429 177.327 267.863 325.932C191.246 513.921 200.291 681.133 217.685 750.71C231.078 804.282 267.885 840.742 314.463 862.85C282.653 840.624 258.47 809.541 248.165 768.321C230.771 698.743 207.588 583.805 294.712 349.659C341.516 223.873 457.918 144.246 531.453 128.349C591.104 115.454 685.495 124.964 752.128 157.122C701.642 121.209 619.78 104.019 553.209 105.212ZM654.484 213.991C650.555 213.947 646.035 214.803 641.046 216.484C641.17 218.832 641.199 221.298 640.992 224.097C633.646 323.038 598.292 370.266 598.292 370.266L631.401 383.839C639.504 371.132 665.292 324.941 671.472 241.708C672.896 222.525 666.34 214.125 654.484 213.991ZM588.403 561.87C588.403 561.87 524.472 714.263 387.859 763.444C391.693 779.497 398.905 787.581 410.59 783.791C552.575 737.742 618.883 579.481 618.883 579.48L751.478 632.312C752.235 630.817 753.808 627.761 753.808 627.761L588.403 561.87Z" fill="#c34f1c" fill-rule="nonzero" opacity="1" stroke="none"/>
</g>
</svg>
